<svg width="48" height="48" viewBox="0 0 48 48" fill="none" xmlns="http://www.w3.org/2000/svg">
<g clip-path="url(#clip0_40_52)">
<path d="M27.864 8C29.4909 8.00159 31.0507 8.64857 32.2011 9.79895C33.3514 10.9493 33.9984 12.5091 34 14.136C34 14.6664 34.2107 15.1751 34.5858 15.5502C34.9609 15.9253 35.4696 16.136 36 16.136C36.5304 16.136 37.0391 15.9253 37.4142 15.5502C37.7893 15.1751 38 14.6664 38 14.136V14C38 13.962 38 13.928 38 13.89C37.9333 11.2455 36.8363 8.73156 34.9429 6.88411C33.0495 5.03666 30.5094 4.00177 27.864 4H26V2C26 1.46957 25.7893 0.960859 25.4142 0.585786C25.0391 0.210714 24.5304 0 24 0C23.4696 0 22.9609 0.210714 22.5858 0.585786C22.2107 0.960859 22 1.46957 22 2V4H20.136C17.7306 4.00257 15.4046 4.86047 13.5736 6.42036C11.7426 7.98024 10.526 10.1404 10.1413 12.5148C9.75659 14.8892 10.2288 17.3231 11.4736 19.3813C12.7183 21.4396 14.6545 22.988 16.936 23.75L22 25.44V40H20.136C18.5091 39.9984 16.9493 39.3514 15.7989 38.2011C14.6486 37.0507 14.0016 35.4909 14 33.864C14 33.3336 13.7893 32.8249 13.4142 32.4498C13.0391 32.0747 12.5304 31.864 12 31.864C11.4696 31.864 10.9609 32.0747 10.5858 32.4498C10.2107 32.8249 10 33.3336 10 33.864V34C10 34.038 10 34.072 10 34.11C10.0667 36.7545 11.1637 39.2684 13.0571 41.1159C14.9505 42.9633 17.4906 43.9982 20.136 44H22V46C22 46.5304 22.2107 47.0391 22.5858 47.4142C22.9609 47.7893 23.4696 48 24 48C24.5304 48 25.0391 47.7893 25.4142 47.4142C25.7893 47.0391 26 46.5304 26 46V44H27.864C30.2694 43.9974 32.5954 43.1395 34.4264 41.5796C36.2574 40.0198 37.474 37.8596 37.8587 35.4852C38.2434 33.1108 37.7712 30.6769 36.5264 28.6187C35.2817 26.5604 33.3455 25.012 31.064 24.25L26 22.56V8H27.864ZM29.804 28.042C31.1869 28.5023 32.3607 29.4397 33.1154 30.6865C33.8702 31.9333 34.1565 33.408 33.9231 34.8466C33.6897 36.2852 32.9518 37.5938 31.8417 38.5381C30.7315 39.4823 29.3214 40.0005 27.864 40H26V26.774L29.804 28.042ZM22 21.226L18.2 19.958C16.8175 19.4979 15.6438 18.5607 14.8891 17.3144C14.1343 16.068 13.8477 14.5937 14.0806 13.1554C14.3135 11.717 15.0506 10.4084 16.1601 9.46389C17.2695 8.51933 18.6789 8.00041 20.136 8H22V21.226Z" fill="#4FA2D0"/>
</g>
<defs>
<clipPath id="clip0_40_52">
<rect width="48" height="48" fill="white"/>
</clipPath>
</defs>
</svg>
