<svg width="48" height="48" viewBox="0 0 48 48" fill="none" xmlns="http://www.w3.org/2000/svg">
<g clip-path="url(#clip0_40_58)">
<path d="M28.4004 32.522C22.5772 30.0564 17.9465 25.4149 15.4944 19.586L22.2944 12.774L9.77439 0.244L3.43239 6.584C2.33239 7.69029 1.46268 9.00372 0.873589 10.4483C0.284494 11.8929 -0.0122964 13.44 0.000390203 15C0.000390203 29.496 18.5044 48 33.0004 48C34.5603 48.0136 36.1073 47.7173 37.5517 47.1281C38.9961 46.539 40.3091 45.6688 41.4144 44.568L47.7564 38.226L35.2264 25.696L28.4004 32.522ZM38.5844 41.74C37.8499 42.4681 36.978 43.0428 36.0194 43.4308C35.0607 43.8188 34.0345 44.0123 33.0004 44C20.5344 44 4.00039 27.466 4.00039 15C3.98861 13.9657 4.18232 12.9393 4.57027 11.9804C4.95822 11.0215 5.5327 10.1492 6.26039 9.414L9.77439 5.9L16.6484 12.774L10.7784 18.644L11.2684 19.872C12.7109 23.7306 14.9659 27.2341 17.8807 30.1451C20.7955 33.0561 24.3019 35.3065 28.1624 36.744L29.3744 37.206L35.2264 31.352L42.1004 38.226L38.5844 41.74ZM28.0004 4V0C33.3029 0.00582319 38.3866 2.11483 42.1361 5.8643C45.8856 9.61376 47.9946 14.6975 48.0004 20H44.0004C43.9956 15.758 42.3084 11.6911 39.3088 8.69155C36.3093 5.692 32.2424 4.00476 28.0004 4ZM28.0004 12V8C31.182 8.00318 34.2324 9.26848 36.4822 11.5182C38.7319 13.768 39.9972 16.8184 40.0004 20H36.0004C36.0004 17.8783 35.1575 15.8434 33.6572 14.3431C32.157 12.8429 30.1221 12 28.0004 12Z" fill="#4FA2D0"/>
</g>
<defs>
<clipPath id="clip0_40_58">
<rect width="48" height="48" fill="white"/>
</clipPath>
</defs>
</svg>
