<svg width="144" height="127" viewBox="0 0 144 127" fill="none" xmlns="http://www.w3.org/2000/svg">
<path d="M147.341 1.87707C148.643 0.469352 150.822 0.378532 152.23 1.68029C153.638 2.98205 153.729 5.16174 152.427 6.56945L124.091 37.2364L124.046 37.297C120.579 41.4899 118.203 45.3649 117.143 48.9069C116.205 52.0402 116.341 54.8859 117.734 57.3683C118.475 58.7003 118.233 60.3351 117.249 61.4098L103.793 75.9713C102.476 74.5333 101.431 73.3678 100.735 72.611C100.417 72.1871 100.054 71.7784 99.6755 71.3849L99.6452 71.4152C99.4636 71.2184 99.2668 71.0367 99.07 70.8551L110.574 58.3976C109.227 54.795 109.242 50.9655 110.483 46.8937C111.815 42.4738 114.646 37.7662 118.717 32.8619C118.808 32.7408 118.884 32.6197 118.99 32.5138L147.311 1.84679L147.341 1.87707ZM86.4763 84.024C85.2048 82.6012 85.3259 80.4064 86.7487 79.1349C88.1716 77.8634 90.3664 77.9845 91.6379 79.4073C105.882 95.3614 149.914 142.573 162.114 160.222C178.205 183.003 153.29 190.178 145.025 181.883C124.379 161.918 80.5427 111.013 61.2736 89.4279C54.341 92.3644 47.6052 92.8185 40.8391 90.881C33.5583 88.8073 26.4289 83.9484 19.1936 76.486L19.1027 76.3951C13.593 70.5826 9.27902 64.8458 6.16085 59.1696C2.96701 53.3268 1.01437 47.5446 0.31808 41.8077C-0.423619 35.632 0.151577 29.88 1.81662 24.7789C3.76925 18.7848 7.23556 13.714 11.7766 9.94494C16.3479 6.16076 21.9636 3.70861 28.2302 2.95177C33.4372 2.33117 39.1135 2.86095 44.9865 4.78332C53.115 7.43224 62.5905 14.0167 70.4465 22.463C76.2439 28.6842 81.2087 35.965 84.1604 43.4576C87.2331 51.2682 88.1716 59.3512 85.7043 66.9195C84.2512 71.4 81.6174 75.608 77.5305 79.4073C76.1228 80.7091 73.9431 80.6183 72.6413 79.2257C71.3396 77.818 71.4304 75.6383 72.823 74.3365C75.9865 71.3849 78.0149 68.1608 79.1198 64.755C81.0271 58.8971 80.2248 52.4034 77.7121 46.0157C75.0783 39.3253 70.613 32.7863 65.3757 27.1705C58.2917 19.5719 49.8908 13.6837 42.8069 11.3678C37.948 9.79357 33.301 9.33947 29.0476 9.85412C24.113 10.4596 19.6931 12.3517 16.1662 15.3033C12.6242 18.255 9.91476 22.236 8.35568 26.9737C7.00851 31.1061 6.53927 35.859 7.15988 40.9904C7.75021 45.8341 9.43038 50.7838 12.1853 55.8395C15.0764 61.0314 19.0422 66.2838 24.1433 71.6573L24.1735 71.7028C30.5612 78.2872 36.6916 82.5255 42.7614 84.2511C48.4983 85.8859 54.341 85.2501 60.4411 82.2076C61.8337 81.4054 63.635 81.6778 64.74 82.9191C83.5398 103.974 129.268 156.968 149.521 176.6C158.315 180.188 163.189 175.768 158.981 167.972C152.427 155.802 96.1184 94.8619 86.4763 84.024ZM68.2214 114.464L24.0827 162.22C23.9919 162.311 23.9162 162.402 23.8103 162.493C17.362 169.456 28.7751 179.597 35.8591 172.816L78.7263 126.422L83.3278 131.644L40.7937 177.675C40.7028 177.781 40.612 177.872 40.4909 177.978C37.948 180.112 35.3899 181.505 32.8015 182.08C30.1374 182.685 27.5188 182.413 25.0061 181.232C24.5822 181.066 24.1887 180.854 23.8405 180.536L17.7404 174.89C17.6496 174.799 17.5588 174.723 17.468 174.617C15.1067 171.893 13.9865 168.986 14.2893 165.914C14.5769 163.007 16.1208 160.177 19.0422 157.452L63.6047 109.227L68.2214 114.464ZM114.479 87.7325L117.098 84.902C118.4 83.4943 120.594 83.4034 121.987 84.7052C123.38 86.007 123.486 88.1866 122.184 89.5944L119.156 92.8639L114.479 87.7325ZM158.103 12.0035C159.405 10.5958 161.585 10.505 162.992 11.8068C164.4 13.1085 164.491 15.2882 163.189 16.6959L138.35 43.5939C137.048 45.0016 134.868 45.0924 133.461 43.7906C132.053 42.4889 131.962 40.3092 133.264 38.9015L158.103 12.0035ZM168.85 21.9484C170.152 20.5406 172.332 20.4498 173.739 21.7516C175.147 23.0533 175.238 25.233 173.936 26.6407L149.112 53.5236C147.81 54.9313 145.631 55.0221 144.223 53.7203C142.815 52.4186 142.724 50.2389 144.026 48.8312L168.85 21.9484ZM179.991 32.2867C181.293 30.879 183.472 30.7882 184.88 32.09C186.288 33.3917 186.379 35.5865 185.077 36.9791L156.741 67.6613C156.635 67.7672 156.529 67.858 156.423 67.964C149.975 74.17 143.814 77.7574 137.926 78.7716C131.538 79.8766 125.68 78.0602 120.307 73.3678C118.869 72.1115 118.733 69.9166 119.974 68.4938C121.23 67.0558 123.425 66.9195 124.848 68.1608C128.556 71.4 132.522 72.6715 136.715 71.9298C141.226 71.1578 146.191 68.1759 151.61 62.9537L151.64 62.9235L179.961 32.2716L179.991 32.2867Z" fill="white"/>
</svg>
