<svg width="48" height="48" viewBox="0 0 48 48" fill="none" xmlns="http://www.w3.org/2000/svg">
<g clip-path="url(#clip0_40_4)">
<path d="M10 38H18.828L46.114 10.714C47.2828 9.54236 47.9392 7.95497 47.9392 6.30002C47.9392 4.64507 47.2828 3.05768 46.114 1.88602C44.9254 0.749811 43.3443 0.115723 41.7 0.115723C40.0557 0.115723 38.4746 0.749811 37.286 1.88602L10 29.172V38ZM14 30.828L40.114 4.71402C40.5412 4.30593 41.1092 4.07821 41.7 4.07821C42.2908 4.07821 42.8588 4.30593 43.286 4.71402C43.7059 5.13505 43.9417 5.70541 43.9417 6.30002C43.9417 6.89464 43.7059 7.46499 43.286 7.88602L17.172 34H14V30.828Z" fill="#4FA2D0"/>
<path d="M47.242 15.244L44 18.486V32H32V44H4V6C4 5.46957 4.21071 4.96086 4.58579 4.58579C4.96086 4.21071 5.46957 4 6 4H29.516L32.758 0.758C33.05 0.487247 33.3579 0.234132 33.68 0L6 0C4.4087 0 2.88258 0.632141 1.75736 1.75736C0.632141 2.88258 0 4.4087 0 6L0 48H36.828L48 36.828V14.322C47.7654 14.6437 47.5123 14.9516 47.242 15.244ZM36 43.172V36H43.172L36 43.172Z" fill="#4FA2D0"/>
</g>
<defs>
<clipPath id="clip0_40_4">
<rect width="48" height="48" fill="white"/>
</clipPath>
</defs>
</svg>
