<svg width="27" height="27" viewBox="0 0 27 27" fill="none" xmlns="http://www.w3.org/2000/svg">
<g clip-path="url(#clip0_14_100)">
<path fill-rule="evenodd" clip-rule="evenodd" d="M11.3569 20.6296C6.04968 20.6296 1.74742 16.4025 1.74742 11.1797C1.74742 5.95687 6.04968 1.72128 11.3569 1.72128C16.6641 1.72128 20.9672 5.95687 20.9672 11.1797C20.9672 16.4025 16.6641 20.6296 11.3569 20.6296ZM26.7367 25.5234L19.7682 18.6637C21.5924 16.6809 22.7138 14.0653 22.7138 11.1797C22.7138 5.00344 17.6293 0 11.3569 0C5.08443 0 0 5.00344 0 11.1797C0 17.3475 5.08443 22.3509 11.3569 22.3509C14.067 22.3509 16.5527 21.4144 18.5051 19.8535L25.5015 26.7384C25.8432 27.0759 26.3959 27.0759 26.7367 26.7384C27.0785 26.4093 27.0785 25.8609 26.7367 25.5234Z" fill="white"/>
</g>
<defs>
<clipPath id="clip0_14_100">
<rect width="27" height="27" fill="white"/>
</clipPath>
</defs>
</svg>
