<svg width="48" height="48" viewBox="0 0 48 48" fill="none" xmlns="http://www.w3.org/2000/svg">
<g clip-path="url(#clip0_40_56)">
<path d="M30.182 32.0001C43.322 31.9281 48 24.9681 48 19.0001C47.9987 17.4002 47.4495 15.849 46.4436 14.6048C45.4378 13.3606 44.0361 12.4985 42.472 12.1621C42.744 11.3881 42.98 10.6781 43.138 10.1401C43.4871 8.96995 43.5557 7.73405 43.3382 6.53249C43.1207 5.33094 42.6232 4.19752 41.886 3.22406C41.1428 2.21983 40.1737 1.40468 39.0569 0.844581C37.9402 0.284481 36.7073 -0.00483046 35.458 6.10083e-05H12.542C11.2927 -0.00483046 10.0598 0.284481 8.94307 0.844581C7.82634 1.40468 6.85717 2.21983 6.114 3.22406C5.37682 4.19752 4.87931 5.33094 4.6618 6.53249C4.44428 7.73405 4.51287 8.96995 4.862 10.1401C5.02 10.6781 5.262 11.3881 5.528 12.1621C3.96387 12.4985 2.56219 13.3606 1.55636 14.6048C0.550526 15.849 0.00125256 17.4002 0 19.0001C0 24.9681 4.678 31.9281 17.818 32.0001C17.9348 32.6072 17.9957 33.2238 18 33.8421V40.0001C18.0344 40.5343 17.9545 41.0697 17.7656 41.5705C17.5767 42.0714 17.2832 42.5263 16.9047 42.9048C16.5262 43.2833 16.0714 43.5768 15.5705 43.7657C15.0696 43.9545 14.5342 44.0344 14 44.0001H12C11.4696 44.0001 10.9609 44.2108 10.5858 44.5858C10.2107 44.9609 10 45.4696 10 46.0001C10 46.5305 10.2107 47.0392 10.5858 47.4143C10.9609 47.7894 11.4696 48.0001 12 48.0001H36C36.5304 48.0001 37.0391 47.7894 37.4142 47.4143C37.7893 47.0392 38 46.5305 38 46.0001C38 45.4696 37.7893 44.9609 37.4142 44.5858C37.0391 44.2108 36.5304 44.0001 36 44.0001H34.016C33.4807 44.0362 32.9438 43.9576 32.4413 43.7695C31.9387 43.5815 31.4821 43.2884 31.102 42.9097C30.7218 42.5311 30.4269 42.0756 30.2368 41.5739C30.0468 41.0721 29.9661 40.5355 30 40.0001V33.8401C30.0044 33.2225 30.0653 32.6066 30.182 32.0001ZM41 16.0001C41.7957 16.0001 42.5587 16.3161 43.1213 16.8787C43.6839 17.4414 44 18.2044 44 19.0001C44 23.0681 40.782 27.4001 31.928 27.9401C32.3708 27.3357 32.8823 26.7847 33.452 26.2981C36.64 23.426 39.1809 19.9089 40.906 15.9801C40.938 15.9821 40.966 16.0001 41 16.0001ZM4 19.0001C4 18.2044 4.31607 17.4414 4.87868 16.8787C5.44129 16.3161 6.20435 16.0001 7 16.0001C7.034 16.0001 7.062 15.9821 7.094 15.9801C8.81911 19.9089 11.36 23.426 14.548 26.2981C15.1177 26.7847 15.6292 27.3357 16.072 27.9401C7.218 27.4001 4 23.0681 4 19.0001ZM21.026 44.0001C21.6872 42.7719 22.0225 41.3947 22 40.0001V33.8421C22.0069 31.8298 21.5756 29.8401 20.736 28.0113C19.8964 26.1825 18.6686 24.5585 17.138 23.2521C13.0711 19.3652 10.1513 14.4348 8.698 9.00006C8.52722 8.42641 8.49437 7.82054 8.60211 7.23178C8.70985 6.64303 8.95514 6.08806 9.318 5.61206C9.69109 5.10911 10.1774 4.70109 10.7375 4.42103C11.2976 4.14097 11.9158 3.99676 12.542 4.00006H35.458C36.0849 3.99768 36.7035 4.14313 37.2637 4.4246C37.8238 4.70607 38.3098 5.11564 38.682 5.62006C39.0449 6.09606 39.2901 6.65103 39.3979 7.23978C39.5056 7.82854 39.4728 8.43441 39.302 9.00806C37.8474 14.4399 34.9277 19.3674 30.862 23.2521C29.3314 24.5581 28.1037 26.1817 27.264 28.0102C26.4244 29.8387 25.9931 31.8281 26 33.8401V40.0001C25.9775 41.3947 26.3128 42.7719 26.974 44.0001H21.026Z" fill="#4FA2D0"/>
</g>
<defs>
<clipPath id="clip0_40_56">
<rect width="48" height="48" fill="white"/>
</clipPath>
</defs>
</svg>
